Coordinates
nRows=5
nColumns=38

# SIMM Motion File Header:
name Coordinates
datacolumns 38
datarows 5
otherdata 1
range 0.87900000000000000000 0.88300000000000001000

Units are S.I. units (second, meters, Newtons, ...)
Angles are in degrees.

endheader
time	pelvis_tilt	pelvis_list	pelvis_rotation	pelvis_tx	pelvis_ty	pelvis_tz	hip_flexion_r	hip_adduction_r	hip_rotation_r	knee_angle_r	ankle_angle_r	subtalar_angle_r	mtp_angle_r	hip_flexion_l	hip_adduction_l	hip_rotation_l	knee_angle_l	ankle_angle_l	subtalar_angle_l	mtp_angle_l	lumbar_extension	lumbar_bending	lumbar_rotation	arm_flex_r	arm_add_r	arm_rot_r	elbow_flex_r	pro_sup_r	wrist_flex_r	wrist_dev_r	arm_flex_l	arm_add_l	arm_rot_l	elbow_flex_l	pro_sup_l	wrist_flex_l	wrist_dev_l
      0.87900000000000000000	     -4.83881304423786850000	     -1.55935117992381360000	     -1.85384070717371220000	      1.14487804879112940000	      0.99004129587867395000	     -0.43875343065674172000	     31.51206497261726700000	      8.23028736595486700000	      4.10368381003126890000	     -3.17400521047274830000	      9.95097964644613950000	      0.00000000000000000000	      0.00000000000000000000	    -23.65176901100180000000	      7.06013386093532080000	      5.09889342052323260000	    -52.50992533690177300000	     -9.62393002255020670000	      0.00000000000000000000	      0.00000000000000000000	    -10.26179923089431000000	      6.62307694015503400000	    -10.23659396565806500000	    -69.41133628443253700000	     -9.89231164206487710000	    -21.97458504839287500000	    133.83642697607610000000	     93.17681738089399300000	      0.00000000000000000000	      0.00000000000000000000	     -6.67320419129457050000	    -21.73509538569731700000	     10.22901005347281100000	    135.50474392579892000000	     94.71817828239278500000	      0.00000000000000000000	      0.00000000000000000000
      0.88000000000000000000	     -4.79427381105485660000	     -1.54038502735979120000	     -1.86715708235850600000	      1.14493109654748060000	      0.98971838854395455000	     -0.43875619306353408000	     31.33776805131991200000	      8.22807287737361470000	      4.08602995856699720000	     -3.06741401732524240000	      9.92175532132974420000	      0.00000000000000000061	     -0.00000000000000000188	    -23.45862455447573000000	      7.02048335831318850000	      4.77776070604287820000	    -53.27323566592733800000	     -9.55065513798935940000	      0.00000000000000000016	      0.00000000000000000025	    -10.33058020472160600000	      6.60007662489060020000	    -10.14986385122696600000	    -69.21916050686306200000	     -9.97432009527174480000	    -21.93279578515795300000	    133.83441098923262000000	     93.19011697463844300000	     -0.00000000000000000008	      0.00000000000000000008	     -6.88191334622528040000	    -21.75131625197441600000	     10.21206388617025200000	    135.35174476056645000000	     94.66964240104268000000	      0.00000000000000000043	     -0.00000000000000000118
      0.88100000000000001000	     -4.75079298359705420000	     -1.52303109246868870000	     -1.87965902908322470000	      1.14497990888226100000	      0.98938616225010112000	     -0.43875892206202860000	     31.17052386076333200000	      8.22702748952738180000	      4.06042243791406230000	     -2.98460794824188460000	      9.88959964032919100000	      0.00000000000000000254	     -0.00000000000000000697	    -23.26230859093317000000	      6.97609620610802140000	      4.45902727217251370000	    -54.03702310253817800000	     -9.47416911527918690000	     -0.00000000000000000001	     -0.00000000000000000066	    -10.39834930142783500000	      6.57872509003605990000	    -10.06383409344133500000	    -69.02237771985760200000	    -10.06049846536713900000	    -21.89002579506745900000	    133.83068699590592000000	     93.20449114805124700000	     -0.00000000000000000034	      0.00000000000000000017	     -7.09405533028492470000	    -21.76485236940853300000	     10.19050623762256300000	    135.19630079793936000000	     94.61841376799287700000	      0.00000000000000000192	     -0.00000000000000000351
      0.88200000000000001000	     -4.70821963816917230000	     -1.50724268231246320000	     -1.89122429466779000000	      1.14502466987915820000	      0.98904478989414746000	     -0.43876193788843343000	     31.01012377401427500000	      8.22707030507812220000	      4.02751345765930680000	     -2.92535893526853120000	      9.85745676912287290000	      0.00000000000000000501	     -0.00000000000000001307	    -23.06309651383904600000	      6.92710148886308370000	      4.14309753663092910000	    -54.80103216491372800000	     -9.39441862454893520000	     -0.00000000000000000031	     -0.00000000000000000071	    -10.46522823138355200000	      6.55900913189100890000	     -9.97858763536445180000	    -68.82103111891929400000	    -10.15082509735222700000	    -21.84629837162368600000	    133.82527920104584000000	     93.21992673312132600000	     -0.00000000000000000108	     -0.00000000000000000053	     -7.30955524656385600000	    -21.77570399157170300000	     10.16436531929095100000	    135.03841130285778000000	     94.56457678202723100000	      0.00000000000000000222	     -0.00000000000000000672
      0.88300000000000001000	     -4.66630941269680480000	     -1.49302965917278340000	     -1.90153008560865080000	      1.14506552179857040000	      0.98869471182887103000	     -0.43876593205552472000	     30.85623003015795600000	      8.22802560363829190000	      3.98698859657714880000	     -2.88934271650403090000	      9.82501967064299640000	      0.00000000000000000066	     -0.00000000000000001983	    -22.86134018110319500000	      6.87352529313302090000	      3.83056087289703750000	    -55.56504810737574500000	     -9.31131757584797980000	     -0.00000000000000000726	     -0.00000000000000000033	    -10.53143736125232800000	      6.54101392970804340000	     -9.89438512103414960000	    -68.61513836983898800000	    -10.24526697200243300000	    -21.80164416403692600000	    133.81821227594145000000	     93.23640883517667500000	     -0.00000000000000000144	     -0.00000000000000000344	     -7.52827525123007660000	    -21.78386747275081700000	     10.13369247087086600000	    134.87804717420502000000	     94.50825962053066600000	      0.00000000000000000288	     -0.00000000000000001090
